<?xml version="1.0" encoding="UTF-8"?>
<svg version="1.1" xmlns="http://www.w3.org/2000/svg" width="585" height="459">
<path d="M0 0 C1.0703125 1.73046875 1.0703125 1.73046875 0.96484375 3.83203125 C0.0703125 5.73046875 0.0703125 5.73046875 -3.2421875 7.10546875 C-3.96535156 7.35039062 -4.68851563 7.5953125 -5.43359375 7.84765625 C-21.82390316 13.64454189 -31.94686743 24.32668183 -40.9296875 38.73046875 C-41.85201172 40.16326172 -41.85201172 40.16326172 -42.79296875 41.625 C-53.1185534 58.36114718 -59.60684685 78.22941116 -61.9296875 97.73046875 C-62.52394531 97.6840625 -63.11820313 97.63765625 -63.73046875 97.58984375 C-78.54093248 96.94490909 -89.28675252 104.94107019 -99.76171875 114.5390625 C-102.29213658 117.0968362 -104.05320109 119.68117833 -105.9296875 122.73046875 C-106.5896875 122.73046875 -107.2496875 122.73046875 -107.9296875 122.73046875 C-108.16558594 123.40851563 -108.40148437 124.0865625 -108.64453125 124.78515625 C-109.91366837 127.69375622 -111.46540517 130.24214358 -113.20385742 132.89111328 C-130.88886304 159.8559712 -141.44001406 192.41274836 -140.9296875 224.79296875 C-140.8845687 227.77757739 -140.88186866 230.74478014 -140.9296875 233.73046875 C-142.76110589 235.56188714 -145.8368024 235.43255569 -148.3046875 235.85546875 C-154.72816865 237.17293784 -159.29794017 239.34481144 -164.625 243.109375 C-166.9296875 244.73046875 -166.9296875 244.73046875 -169.109375 245.6953125 C-171.45376432 247.02849527 -171.85008529 248.29136746 -172.9296875 250.73046875 C-173.97597505 252.17981166 -175.04032921 253.61619311 -176.1171875 255.04296875 C-203.01841965 293.27397295 -203.03267639 349.21896693 -203.1796875 394.10546875 C-203.18495453 394.87605621 -203.19022156 395.64664368 -203.19564819 396.44058228 C-203.30394033 416.90179478 -201.90311191 437.28855612 -200.9296875 457.73046875 C-234.9196875 457.73046875 -268.9096875 457.73046875 -303.9296875 457.73046875 C-305.0557128 449.84829163 -305.0557128 449.84829163 -305.09082031 446.58813477 C-305.10028183 445.8498494 -305.10974335 445.11156403 -305.11949158 444.35090637 C-305.12388748 443.56995102 -305.12828339 442.78899567 -305.1328125 441.984375 C-305.13982681 441.14899704 -305.14684113 440.31361908 -305.15406799 439.45292664 C-305.17162494 436.73288598 -305.17793202 434.01306421 -305.1796875 431.29296875 C-305.18036224 430.35763306 -305.18103699 429.42229736 -305.18173218 428.45861816 C-305.1121304 367.41460944 -294.78696271 289.03240364 -251.40625 242.1484375 C-240.30961662 231.31434277 -227.07780066 223.68863103 -211.3046875 223.60546875 C-210.1909375 223.64671875 -209.0771875 223.68796875 -207.9296875 223.73046875 C-207.96449219 222.59609375 -207.99929688 221.46171875 -208.03515625 220.29296875 C-208.03001933 215.61631899 -207.24829959 211.28464856 -206.2421875 206.73046875 C-206.06212158 205.90305176 -205.88205566 205.07563477 -205.6965332 204.22314453 C-199.83066428 178.07855831 -188.73707651 154.34095277 -172.9296875 132.73046875 C-172.32769531 131.88097656 -171.72570312 131.03148437 -171.10546875 130.15625 C-168.14669856 126.05122502 -168.14669856 126.05122502 -166.9296875 124.73046875 C-166.2696875 124.73046875 -165.6096875 124.73046875 -164.9296875 124.73046875 C-164.7028125 124.19421875 -164.4759375 123.65796875 -164.2421875 123.10546875 C-162.47398661 119.90586714 -160.39298547 117.44009652 -157.9296875 114.73046875 C-157.2696875 114.73046875 -156.6096875 114.73046875 -155.9296875 114.73046875 C-155.9296875 114.07046875 -155.9296875 113.41046875 -155.9296875 112.73046875 C-146.0695954 101.95173452 -129.2957318 90.3424768 -114.9296875 87.73046875 C-111.25578537 87.59031989 -107.60377677 87.61087814 -103.9296875 87.73046875 C-103.72214844 86.71210937 -103.51460937 85.69375 -103.30078125 84.64453125 C-99.25125306 65.69165282 -92.34793502 49.01099052 -80.6171875 33.48046875 C-80.1843042 32.90643311 -79.7514209 32.33239746 -79.30541992 31.7409668 C-78.23079341 30.36311562 -77.08571428 29.04077333 -75.9296875 27.73046875 C-75.2696875 27.73046875 -74.6096875 27.73046875 -73.9296875 27.73046875 C-73.9296875 27.07046875 -73.9296875 26.41046875 -73.9296875 25.73046875 C-73.2696875 25.73046875 -72.6096875 25.73046875 -71.9296875 25.73046875 C-71.73117187 25.17101562 -71.53265625 24.6115625 -71.328125 24.03515625 C-69.3704647 20.80884458 -66.60073551 18.97017115 -63.5546875 16.85546875 C-62.92546387 16.41565674 -62.29624023 15.97584473 -61.64794922 15.52270508 C-48.9745163 6.83787337 -15.04390936 -9.89730879 0 0 Z " fill="#98CFFF" transform="translate(521.9296875,1.26953125)"/>
<path d="M0 0 C4.23170951 -0.0999677 8.4627671 -0.17197673 12.6953125 -0.21972656 C14.13065587 -0.23966189 15.56591997 -0.26682074 17.00097656 -0.30175781 C25.54932915 -0.50443842 33.3938511 -0.50413871 41 4 C45.0515804 7.95029089 46.80285544 11.83140982 47.3125 17.4375 C46.79523407 23.33433155 44.70566715 26.57766726 40.3125 30.375 C39.21638319 31.26006326 38.1148552 32.13865982 37 33 C37.67546875 33.36351562 38.3509375 33.72703125 39.046875 34.1015625 C45.25090477 37.59805327 49.12786343 40.16364719 51.75 46.9375 C52.62418941 54.14956265 51.90770805 60.05213623 47.55859375 65.95703125 C42.29094706 71.76244233 36.8977765 73.76592924 29.08496094 74.23510742 C24.53444588 74.3308553 19.98781809 74.26243533 15.4375 74.1875 C13.84050741 74.17242639 12.24350106 74.15874272 10.64648438 74.14648438 C6.76397876 74.11368925 2.88214367 74.06205574 -1 74 C-0.875 72.125 -0.875 72.125 0 70 C2.97 69.01 2.97 69.01 6 68 C6 47.54 6 27.08 6 6 C3.69 5.01 1.38 4.02 -1 3 C-0.67 2.01 -0.34 1.02 0 0 Z " fill="#000000" transform="translate(248,296)"/>
<path d="M0 0 C4.3924631 -0.07482575 8.78457672 -0.12891683 13.17749023 -0.16479492 C14.66811598 -0.17977042 16.15869851 -0.20015819 17.64916992 -0.22631836 C36.46640057 -0.54803434 36.46640057 -0.54803434 43.875 5.25 C47.86581872 10.41458894 49.60824228 15.2543142 49.34375 21.734375 C48.19791491 29.2864699 43.80689078 33.50895639 38 38 C37.34 38.66 36.68 39.32 36 40 C37.83692044 43.94695341 39.70307937 47.87825576 41.59692383 51.7980957 C42.236218 53.13180397 42.86753934 54.46936582 43.49047852 55.81079102 C44.39060476 57.74537999 45.3190803 59.66401468 46.25390625 61.58203125 C46.80377197 62.73936768 47.3536377 63.8967041 47.92016602 65.08911133 C50.61610024 68.86227998 52.66911417 69.54277363 57 71 C57 71.99 57 72.98 57 74 C51.72 74 46.44 74 41 74 C39.845 71.69 38.69 69.38 37.5 67 C37.10876953 66.22841553 36.71753906 65.45683105 36.31445312 64.66186523 C34.43455746 60.94871593 32.63644238 57.22377633 30.96875 53.41015625 C30.63810547 52.68119141 30.30746094 51.95222656 29.96679688 51.20117188 C29.33372791 49.80074659 28.72453895 48.38922048 28.14257812 46.96679688 C27.19706568 44.74843787 27.19706568 44.74843787 25 42 C22.36 41.67 19.72 41.34 17 41 C17.33 49.91 17.66 58.82 18 68 C19.98 68.99 21.96 69.98 24 71 C24 71.99 24 72.98 24 74 C16.08 74 8.16 74 0 74 C0 72.68 0 71.36 0 70 C2.97 69.01 2.97 69.01 6 68 C6 47.54 6 27.08 6 6 C3.69 5.01 1.38 4.02 -1 3 C-0.67 2.01 -0.34 1.02 0 0 Z M17 6 C17 15.57 17 25.14 17 35 C26.63825938 35.58759977 26.63825938 35.58759977 34 32 C38.12802479 27.5372705 39.3086435 24.17525794 39.21875 18.0625 C38.77696084 13.89705934 37.06208723 10.96251655 34 8.1875 C28.14213045 4.70938995 24.97477724 6 17 6 Z " fill="#000000" transform="translate(427,296)"/>
<path d="M0 0 C4.3924631 -0.07482575 8.78457672 -0.12891683 13.17749023 -0.16479492 C14.66811598 -0.17977042 16.15869851 -0.20015819 17.64916992 -0.22631836 C36.46640057 -0.54803434 36.46640057 -0.54803434 43.875 5.25 C47.86581872 10.41458894 49.60824228 15.2543142 49.34375 21.734375 C48.19791491 29.2864699 43.80689078 33.50895639 38 38 C37.34 38.66 36.68 39.32 36 40 C37.83692044 43.94695341 39.70307937 47.87825576 41.59692383 51.7980957 C42.236218 53.13180397 42.86753934 54.46936582 43.49047852 55.81079102 C44.39060476 57.74537999 45.3190803 59.66401468 46.25390625 61.58203125 C46.80377197 62.73936768 47.3536377 63.8967041 47.92016602 65.08911133 C50.61610024 68.86227998 52.66911417 69.54277363 57 71 C57 71.99 57 72.98 57 74 C51.72 74 46.44 74 41 74 C39.845 71.69 38.69 69.38 37.5 67 C37.10876953 66.22841553 36.71753906 65.45683105 36.31445312 64.66186523 C34.43455746 60.94871593 32.63644238 57.22377633 30.96875 53.41015625 C30.63810547 52.68119141 30.30746094 51.95222656 29.96679688 51.20117188 C29.33372791 49.80074659 28.72453895 48.38922048 28.14257812 46.96679688 C27.19706568 44.74843787 27.19706568 44.74843787 25 42 C22.36 41.67 19.72 41.34 17 41 C17.33 49.91 17.66 58.82 18 68 C19.98 68.99 21.96 69.98 24 71 C24 71.99 24 72.98 24 74 C16.08 74 8.16 74 0 74 C0 72.68 0 71.36 0 70 C2.97 69.01 2.97 69.01 6 68 C6 47.54 6 27.08 6 6 C3.69 5.01 1.38 4.02 -1 3 C-0.67 2.01 -0.34 1.02 0 0 Z M17 6 C17 15.57 17 25.14 17 35 C26.63825938 35.58759977 26.63825938 35.58759977 34 32 C38.12802479 27.5372705 39.3086435 24.17525794 39.21875 18.0625 C38.77696084 13.89705934 37.06208723 10.96251655 34 8.1875 C28.14213045 4.70938995 24.97477724 6 17 6 Z " fill="#000000" transform="translate(94,296)"/>
<path d="M0 0 C2.59504 2.81331439 2.05868163 5.27201936 1.921875 9 C1.88578125 10.27230469 1.8496875 11.54460937 1.8125 12.85546875 C1.76609375 13.83128906 1.7196875 14.80710937 1.671875 15.8125 C0.021875 16.1425 -1.628125 16.4725 -3.328125 16.8125 C-3.97807797 15.39771865 -4.62291222 13.98058513 -5.265625 12.5625 C-5.80509766 11.37914062 -5.80509766 11.37914062 -6.35546875 10.171875 C-7.328125 7.8125 -7.328125 7.8125 -7.8046875 5.59375 C-7.97742188 5.0059375 -8.15015625 4.418125 -8.328125 3.8125 C-14.08500664 0.86025301 -20.80784367 0.94796032 -26.984375 2.46484375 C-32.97329763 4.56637835 -37.18674644 7.21691943 -40.328125 12.8125 C-45.78872914 25.26950319 -46.20288714 39.0716444 -41.328125 51.8125 C-38.39168277 57.55362103 -34.72316155 60.91752387 -28.6796875 63.19140625 C-21.02630428 65.21281478 -14.66565391 63.29279146 -7.328125 60.8125 C-7.328125 54.8725 -7.328125 48.9325 -7.328125 42.8125 C-9.308125 42.1525 -11.288125 41.4925 -13.328125 40.8125 C-13.328125 39.4925 -13.328125 38.1725 -13.328125 36.8125 C-5.408125 36.8125 2.511875 36.8125 10.671875 36.8125 C10.671875 38.1325 10.671875 39.4525 10.671875 40.8125 C8.361875 41.4725 6.051875 42.1325 3.671875 42.8125 C3.82849609 44.76542969 3.82849609 44.76542969 3.98828125 46.7578125 C4.75401337 60.18033859 4.75401337 60.18033859 2.01953125 64.3046875 C-0.38516135 65.93599039 -2.57232627 66.8993846 -5.328125 67.8125 C-6.49988281 68.30363281 -6.49988281 68.30363281 -7.6953125 68.8046875 C-17.2065119 72.32850892 -27.49486623 71.99730057 -36.82421875 68.140625 C-45.90289878 63.32510049 -51.74481632 55.70292447 -54.75 46.0234375 C-57.66241293 34.88542589 -56.95674885 24.41354172 -52.328125 13.8125 C-46.59828656 4.42000454 -38.91547913 -1.5626205 -28.3984375 -4.77734375 C-18.38871323 -6.76040233 -8.96518738 -4.57284725 0 0 Z " fill="#000000" transform="translate(573.328125,300.1875)"/>
<path d="M0 0 C15.18 0 30.36 0 46 0 C46.85221996 3.40887983 47.10783755 5.80434631 47.0625 9.25 C47.05347656 10.14203125 47.04445313 11.0340625 47.03515625 11.953125 C47.02355469 12.62859375 47.01195312 13.3040625 47 14 C45.68 14 44.36 14 43 14 C40 8.25 40 8.25 40 6 C32.41 6 24.82 6 17 6 C17 14.91 17 23.82 17 33 C26.9 32.505 26.9 32.505 37 32 C37.99 29.69 38.98 27.38 40 25 C40.99 25.33 41.98 25.66 43 26 C43 32.6 43 39.2 43 46 C41.68 46 40.36 46 39 46 C38.34 44.02 37.68 42.04 37 40 C30.4 39.67 23.8 39.34 17 39 C17.33 48.24 17.66 57.48 18 67 C30.46207074 68.62675528 30.46207074 68.62675528 41.8125 64.7734375 C43.61381463 62.06515792 43.61381463 62.06515792 44.81640625 59.1875 C45.20699219 58.465625 45.59757812 57.74375 46 57 C47.32 57 48.64 57 50 57 C49.88366642 58.52152079 49.7564113 60.04220723 49.625 61.5625 C49.52058594 62.83287109 49.52058594 62.83287109 49.4140625 64.12890625 C49 67 49 67 47 74 C31.49 74 15.98 74 0 74 C0 72.68 0 71.36 0 70 C2.97 69.01 2.97 69.01 6 68 C6 47.54 6 27.08 6 6 C3.69 5.01 1.38 4.02 -1 3 C-0.67 2.01 -0.34 1.02 0 0 Z " fill="#000000" transform="translate(338,296)"/>
<path d="M0 0 C17.16 0 34.32 0 52 0 C53.60679587 6.42718346 54.2206398 9.82208548 54 16 C51.8125 16 51.8125 16 49 15 C48.28636703 13.69120277 47.62576736 12.35301051 47 11 C46.01 9.68 45.02 8.36 44 7 C39.71 6.67 35.42 6.34 31 6 C31.33 26.46 31.66 46.92 32 68 C34.31 68.99 36.62 69.98 39 71 C38.505 72.485 38.505 72.485 38 74 C30.08 74 22.16 74 14 74 C14 72.68 14 71.36 14 70 C16.97 69.01 16.97 69.01 20 68 C20.33 47.54 20.66 27.08 21 6 C14.565 6.495 14.565 6.495 8 7 C4.56759787 11.0555873 4.56759787 11.0555873 3.24609375 14.06640625 C2.62927734 15.02353516 2.62927734 15.02353516 2 16 C0.68 16 -0.64 16 -2 16 C-2.2206398 9.82208548 -1.60679587 6.42718346 0 0 Z " fill="#000000" transform="translate(4,296)"/>
<path d="M0 0 C7.92 0 15.84 0 24 0 C24 1.32 24 2.64 24 4 C22.02 4.66 20.04 5.32 18 6 C18 26.46 18 46.92 18 68 C20.31 68.99 22.62 69.98 25 71 C24.67 71.99 24.34 72.98 24 74 C16.08 74 8.16 74 0 74 C0 72.68 0 71.36 0 70 C2.97 69.01 2.97 69.01 6 68 C6 47.54 6 27.08 6 6 C3.69 5.01 1.38 4.02 -1 3 C-0.67 2.01 -0.34 1.02 0 0 Z " fill="#000000" transform="translate(184,296)"/>
<path d="M0 0 C2.09234745 -0.03213214 4.18483668 -0.05512679 6.27734375 -0.07421875 C7.44257568 -0.08799561 8.60780762 -0.10177246 9.80834961 -0.1159668 C13.64148816 0.02330811 15.91549303 0.70639225 19 3 C23.27494507 7.62156224 24.42414255 11.42195225 24.34375 17.58203125 C23.57981981 22.95558562 20.62951673 26.72818207 16.4375 30 C11.33676183 31.4838511 6.27803583 31.4268396 1 31 C0 30 0 30 -0.11352539 27.13256836 C-0.10828857 25.88096924 -0.10305176 24.62937012 -0.09765625 23.33984375 C-0.0962413 22.67537735 -0.09482635 22.01091095 -0.09336853 21.3263092 C-0.08775518 19.19666101 -0.07520054 17.06711661 -0.0625 14.9375 C-0.05748671 13.49674631 -0.05292351 12.05599097 -0.04882812 10.61523438 C-0.03778145 7.07678898 -0.02050792 3.53840461 0 0 Z " fill="#98CFFF" transform="translate(265,333)"/>
<path d="M0 0 C12.66666667 0 12.66666667 0 17 4 C19.36573729 7.01093837 19.36546655 10.20188013 19.24609375 13.97265625 C18.85242487 17.21573794 17.862112 19.33097279 16 22 C10.48168296 26.03779296 7.56364414 25 0 25 C0 16.75 0 8.5 0 0 Z " fill="#99CFFF" transform="translate(265,302)"/>
</svg>
